<?xml version="1.0" encoding="UTF-8" standalone="no"?>
<!-- Created with Inkscape (http://www.inkscape.org/) -->

<svg
   xmlns:dc="http://purl.org/dc/elements/1.1/"
   xmlns:cc="http://creativecommons.org/ns#"
   xmlns:rdf="http://www.w3.org/1999/02/22-rdf-syntax-ns#"
   xmlns:svg="http://www.w3.org/2000/svg"
   xmlns="http://www.w3.org/2000/svg"
   xmlns:sodipodi="http://sodipodi.sourceforge.net/DTD/sodipodi-0.dtd"
   xmlns:inkscape="http://www.inkscape.org/namespaces/inkscape"
   version="1.1"
   id="svg815"
   xml:space="preserve"
   width="174.85931"
   height="31.231754"
   viewBox="0 0 174.85931 31.231756"
   sodipodi:docname="logo-menu.svg"
   inkscape:version="0.92.5 (2060ec1f9f, 2020-04-08)"><metadata
     id="metadata821"><rdf:RDF><cc:Work
         rdf:about=""><dc:format>image/svg+xml</dc:format><dc:type
           rdf:resource="http://purl.org/dc/dcmitype/StillImage" /><dc:title /></cc:Work></rdf:RDF></metadata><defs
     id="defs819" /><sodipodi:namedview
     pagecolor="#ffffff"
     bordercolor="#666666"
     borderopacity="1"
     objecttolerance="10"
     gridtolerance="10"
     guidetolerance="10"
     inkscape:pageopacity="0"
     inkscape:pageshadow="2"
     inkscape:window-width="2560"
     inkscape:window-height="999"
     id="namedview817"
     showgrid="false"
     inkscape:pagecheckerboard="true"
     showborder="true"
     inkscape:zoom="7.2769304"
     inkscape:cx="103.04684"
     inkscape:cy="23.44187"
     inkscape:window-x="0"
     inkscape:window-y="1080"
     inkscape:window-maximized="1"
     inkscape:current-layer="text831" /><g
     id="g823"
     inkscape:groupmode="layer"
     inkscape:label="MaestroBet Logo"
     transform="matrix(1.3333333,0,0,-1.3333333,-93.662187,452.49595)"><g
       id="g825"><g
         id="g861"
         transform="matrix(0.12550045,0,0,0.12550045,58.676099,274.03558)"><g
           id="g1097"><g
             id="g1108"
             inkscape:export-filename="/home/yokota/git/maestrobet-site/img/logo-menu.svg.png"
             inkscape:export-xdpi="96"
             inkscape:export-ydpi="96"><g
               transform="translate(129.43181,221.03805)"
               id="g844"><g
   aria-label="MAESTRO
BET"
   transform="matrix(1,0,0,-1,173.4245,188.3988)"
   style="font-variant:normal;font-size:126.83399963px;font-family:'Intro Demo';-inkscape-font-specification:Intro-Black-Caps;writing-mode:lr-tb;fill:#115b30;fill-opacity:1;fill-rule:nonzero;stroke:none"
   id="text831"><path
     d="M 97.789014,-89.037468 H 89.671638 L 54.284952,-50.479932 19.532436,-89.037468 H 11.161392 V 0 h 23.210622 v -39.572208 l 18.771432,19.786104 h 2.53668 L 74.578392,-39.572208 V 0 h 23.210622 z"
     style="fill:#48b23a;fill-opacity:1"
     id="path869" /><path
     d="m 133.42937,-11.161392 h 35.00618 L 173.63574,0 h 22.19595 v -3.297684 l -40.07954,-86.627622 h -9.76622 L 106.03322,-3.297684 V 0 h 22.19595 z m 7.35637,-19.405602 10.01988,-23.337456 10.27356,23.337456 z"
     style="fill:#48b23a;fill-opacity:1"
     id="path871" /><path
     d="M 261.40487,-68.49036 V -88.7838 H 205.97841 V 0 h 56.56797 v -20.166606 h -33.99152 v -15.600582 h 30.1865 v -20.166606 h -30.1865 V -68.49036 Z"
     style="fill:#48b23a;fill-opacity:1"
     id="path873" /><path
     d="m 294.25487,-27.142476 h -21.94228 c -0.50734,39.064872 71.78804,38.430702 71.78804,1.141506 0,-22.19595 -17.24942,-24.859464 -34.87935,-26.761974 -7.99054,-0.887838 -14.58591,-2.283012 -14.07857,-9.005214 0.761,-10.527222 24.60579,-11.541894 24.60579,0.253668 h 21.56178 c 0.50734,-38.303868 -68.49036,-38.303868 -67.72935,0 0.25367,19.278768 12.93707,25.874136 32.21583,27.26931 8.87838,0.507336 16.23476,1.90251 16.23476,8.117376 0,10.400388 -27.77665,10.273554 -27.77665,-1.014672 z"
     style="fill:#48b23a;fill-opacity:1"
     id="path875" /><path
     d="m 351.32879,-88.7838 v 20.29344 h 21.81545 V 0 h 22.44962 v -68.49036 h 21.68861 V -88.7838 Z"
     style="fill:#48b23a;fill-opacity:1"
     id="path877" /><path
     d="m 505.81258,0 v -3.297684 l -17.37626,-28.157148 c 22.44962,-15.22008 16.10792,-57.202134 -18.77143,-57.328968 H 430.72685 V 0 h 22.70329 V -26.127804 H 465.2257 L 480.44578,0 Z m -36.14769,-46.29441 h -16.23475 v -22.19595 c 5.32703,0 10.90772,-0.126834 16.23475,0 12.93707,0.126834 12.3029,22.19595 0,22.19595 z"
     style="fill:#48b23a;fill-opacity:1"
     id="path879" /><path
     d="m 603.98128,-44.265066 c 0,-61.387654 -91.06681,-61.387654 -91.06681,0 0,61.51449 91.06681,61.51449 91.06681,0 z m -67.72935,0 c 0,-31.962168 44.51873,-31.962168 44.51873,0 0,32.215836 -44.51873,32.215836 -44.51873,0 z"
     style="fill:#48b23a;fill-opacity:1"
     id="path881" /><path
     d="m 684.64711,-61.51449 c 0,-15.346914 -12.3029,-27.26931 -27.64981,-27.26931 H 619.07393 V 0 h 41.60155 c 18.13727,0 27.52298,-12.556566 27.64982,-28.030314 0,-7.863708 -3.42452,-14.459076 -10.65406,-18.137262 4.31236,-3.551352 6.97587,-10.019886 6.97587,-15.346914 z m -43.6309,7.356372 V -68.49036 h 14.20541 c 9.13205,0 9.13205,14.332242 0.12684,14.332242 z m 0,33.991512 v -15.093246 h 18.01043 c 9.13205,0 9.25888,15.093246 0.12684,15.093246 z"
     style="fill:#ffffff;fill-opacity:1"
     id="path883" /><path
     d="M 759.98647,-68.49036 V -88.7838 H 704.56002 V 0 h 56.56796 v -20.166606 h -33.99151 v -15.600582 h 30.18649 V -55.933794 H 727.13647 V -68.49036 Z"
     style="fill:#ffffff;fill-opacity:1"
     id="path885" /><path
     d="m 768.35754,-88.7838 v 20.29344 h 21.81545 V 0 h 22.44962 v -68.49036 h 21.68861 V -88.7838 Z"
     style="fill:#ffffff;fill-opacity:1"
     id="path887" /></g>

<g
   aria-label="SUA JOGADA DE MESTRE"
   transform="matrix(1,0,0,-1,302.4048,121.8909)"
   style="font-variant:normal;font-size:48.10200119px;font-family:'Intro Demo';-inkscape-font-specification:Intro-Book-Caps;writing-mode:lr-tb;fill:#48b23a;fill-opacity:1;fill-rule:nonzero;stroke:none"
   id="text835"><path
     d="M 10.245726,-10.293828 H 1.92408 c -0.192408,14.8154161 27.225733,14.5749061 27.225733,0.4329178 0,-8.4178498 -6.541872,-9.4279918 -13.228051,-10.1495218 -3.030426,-0.336715 -5.53173,-0.865837 -5.339322,-3.415243 0.288612,-3.992466 9.331788,-4.377282 9.331788,0.0962 h 8.177341 c 0.192408,-14.526804 -25.9750809,-14.526804 -25.6864689,0 0.096204,7.311505 4.9064041,9.812809 12.2179079,10.341931 3.36714,0.192408 6.157057,0.72153 6.157057,3.0785278 0,3.9443641 -10.534339,3.8962621 -10.534339,-0.3848158 z"
     style=""
     id="path833" /><path
     d="m 48.390613,-7.2634022 c -2.501304,0 -5.146914,-1.346856 -5.146914,-4.0886698 v -22.319329 h -8.225442 v 22.463635 c 0,7.4077079 6.49377,11.68878601 13.372356,11.68878601 6.926688,0 13.324254,-4.28107811 13.324254,-11.68878601 v -22.463635 h -8.225442 v 22.319329 c 0,2.7418138 -2.597508,4.0886698 -5.098812,4.0886698 z"
     style=""
     id="path835" /><path
     d="M 74.943032,-4.2329761 H 88.219185 L 90.191367,0 h 8.41785 V -1.250652 L 83.408985,-34.104319 H 79.70513 L 64.553,-1.250652 V 0 h 8.41785 z m 2.789916,-7.3596059 3.800058,-8.850769 3.896263,8.850769 z"
     style=""
     id="path838" /><path
     d="m 136.08045,-11.207766 v -22.463635 h -13.70907 v 7.648218 h 4.90641 v 14.671111 c 0,2.6937118 -1.68357,4.0405678 -4.18488,4.0405678 -2.5013,0 -4.47348,-1.394958 -4.47348,-4.0405678 v -4.232976 h -8.12924 v 4.377282 c 0,7.3596059 5.67603,11.59258201 12.60272,11.59258201 6.92669,0 12.98754,-4.23297611 12.98754,-11.59258201 z"
     style=""
     id="path840" /><path
     d="m 175.76461,-16.787598 c 0,-23.281369 -34.53724,-23.281369 -34.53724,0 0,23.3294702 34.53724,23.3294702 34.53724,0 z m -25.68647,0 c 0,-12.121705 16.8838,-12.121705 16.8838,0 0,12.2179079 -16.8838,12.2179079 -16.8838,0 z"
     style=""
     id="path842" /><path
     d="m 180.18999,-16.8357 c 0.0481,11.4963779 8.70646,17.22051601 17.26862,17.22051601 6.20515,0 12.60272,-2.69371211 15.00782,-9.71660421 1.15445,-3.2709358 1.15445,-6.4937698 0.96204,-9.8609098 h -15.92176 v 7.45581 h 7.1672 c -1.53927,3.2228338 -3.75196,4.1367718 -7.2153,4.1367718 -5.09882,0 -8.36975,-3.6557518 -8.36975,-9.2355838 0,-5.146915 2.93422,-9.379891 8.36975,-9.379891 3.41524,0 5.62793,1.154448 7.02289,4.040568 h 8.46595 c -1.63547,-8.369748 -8.70646,-11.881194 -15.48884,-11.929296 -8.56216,0 -17.22052,5.77224 -17.26862,17.268619 z"
     style=""
     id="path844" /><path
     d="m 224.92474,-4.2329761 h 13.27615 L 240.17307,0 h 8.41785 v -1.250652 l -15.20023,-32.853667 h -3.70385 L 214.5347,-1.250652 V 0 h 8.41785 z m 2.78991,-7.3596059 3.80006,-8.850769 3.89626,8.850769 z"
     style=""
     id="path846" /><path
     d="M 265.42662,-33.671401 H 252.72769 V 0 h 12.69893 c 21.93451,-0.096204 21.93451,-33.575197 0,-33.671401 z m 0,25.8307748 h -4.08867 V -25.830775 h 4.08867 c 10.72674,0 10.72674,17.9901488 0,17.9901488 z"
     style=""
     id="path848" /><path
     d="m 292.98882,-4.2329761 h 13.27616 L 308.23716,0 h 8.41785 v -1.250652 l -15.20023,-32.853667 h -3.70386 L 282.59879,-1.250652 V 0 h 8.41785 z m 2.78992,-7.3596059 3.80006,-8.850769 3.89626,8.850769 z"
     style=""
     id="path850" /><path
     d="M 344.50561,-33.671401 H 331.80668 V 0 h 12.69893 c 21.93451,-0.096204 21.93451,-33.575197 0,-33.671401 z m 0,25.8307748 h -4.08867 V -25.830775 h 4.08867 c 10.72675,0 10.72675,17.9901488 0,17.9901488 z"
     style=""
     id="path852" /><path
     d="m 388.03792,-25.975081 v -7.69632 H 367.01735 V 0 h 21.45349 V -7.6482182 H 375.5795 v -5.9165458 h 11.44828 v -7.648219 H 375.5795 v -4.762098 z"
     style=""
     id="path854" /><path
     d="m 439.65137,-33.767605 h -3.07853 l -13.42046,14.623009 -13.17994,-14.623009 H 406.7977 V 0 h 8.80267 v -15.007824 l 7.1191,7.5039118 h 0.96204 l 7.16719,-7.5039118 V 0 h 8.80267 z"
     style=""
     id="path856" /><path
     d="m 467.64675,-25.975081 v -7.69632 H 446.62617 V 0 h 21.45349 v -7.6482182 h -12.89133 v -5.9165458 h 11.44827 v -7.648219 h -11.44827 v -4.762098 z"
     style=""
     id="path858" /><path
     d="m 479.62314,-10.293828 h -8.32165 c -0.19241,14.8154161 27.22573,14.5749061 27.22573,0.4329178 0,-8.4178498 -6.54187,-9.4279918 -13.22805,-10.1495218 -3.03042,-0.336715 -5.53173,-0.865837 -5.33932,-3.415243 0.28861,-3.992466 9.33179,-4.377282 9.33179,0.0962 h 8.17734 c 0.19241,-14.526804 -25.97508,-14.526804 -25.68647,0 0.0962,7.311505 4.90641,9.812809 12.21791,10.341931 3.36714,0.192408 6.15706,0.72153 6.15706,3.0785278 0,3.9443641 -10.53434,3.8962621 -10.53434,-0.3848158 z"
     style=""
     id="path860" /><path
     d="m 501.12485,-33.671401 v 7.69632 h 8.27355 V 0 h 8.51405 v -25.975081 h 8.22544 v -7.69632 z"
     style=""
     id="path862" /><path
     d="m 559.28016,0 v -1.250652 l -6.58997,-10.678644 c 8.51405,-5.77224 6.10895,-21.694003 -7.1191,-21.742105 H 530.80378 V 0 h 8.61026 v -9.9090122 h 4.47348 L 549.65976,0 Z m -13.70907,-17.55723 h -6.15705 v -8.417851 c 2.02028,0 4.13677,-0.0481 6.15705,0 4.90641,0.0481 4.6659,8.417851 0,8.417851 z"
     style=""
     id="path864" /><path
     d="m 584.19698,-25.975081 v -7.69632 H 563.1764 V 0 h 21.4535 v -7.6482182 h -12.89134 v -5.9165458 h 11.44828 v -7.648219 h -11.44828 v -4.762098 z"
     style=""
     id="path866" /></g>

</g><g
               id="g1086"
               transform="matrix(0.82285183,0,0,0.82285183,46.735374,72.676136)"><path
                 sodipodi:nodetypes="scccccccccccccccccccccs"
                 d="m 157.23575,544.36374 c -15.39342,0 -30.29485,-2.2177 -44.66475,-6.3377 -15.070846,-4.3208 -29.563057,-10.7461 -43.429797,-18.9082 -3.97731,-2.341 -7.18992,-5.5101 -9.47767,-9.2469 -2.28786,-3.7369 -3.65016,-8.0361 -3.92627,-12.6363 -0.45576,-7.5887 -0.62233,-15.1521 -0.37849,-22.7366 0.24341,-7.5733 0.90063,-15.1377 2.09279,-22.7303 1.21352,-7.7264 2.92817,-15.2136 5.02486,-22.5434 2.07425,-7.2507 4.56672,-14.4813 7.34605,-21.7285 6.81461,-18.8928 16.806961,-34.8188 29.183261,-48.7416 12.317936,-13.8569 27.002196,-25.7301 43.265756,-36.5743 4.5885,-3.0595 9.77571,-4.6066 14.96426,-4.6411 5.18869,0.035 10.37588,1.5816 14.96439,4.6411 16.26356,10.8442 30.94782,22.7174 43.26575,36.5743 12.37629,13.9228 22.36866,29.8488 29.18308,48.7416 2.77951,7.2472 5.27196,14.4778 7.3462,21.7285 2.0967,7.3298 3.81137,14.817 5.02488,22.5434 1.19217,7.5926 1.8492,15.157 2.0928,22.7303 0.24382,7.5845 0.0773,15.1479 -0.37847,22.7366 -0.27627,4.6002 -1.63841,8.8994 -3.92628,12.6363 -2.28777,3.7368 -5.50039,6.9059 -9.4778,9.2469 -13.86663,8.1621 -28.35883,14.5874 -43.42967,18.9082 -14.36989,4.12 -29.27133,6.3377 -44.66488,6.3377 z"
                 style="fill:#ffffff;fill-opacity:1;fill-rule:evenodd;stroke:none;stroke-width:0.5911203"
                 id="path837-6"
                 inkscape:connector-curvature="0" /><path
                 d="m 157.23575,323.33846 c -4.06791,0.0345 -8.13328,1.25707 -11.74774,3.66695 -15.69537,10.46555 -29.92417,21.91757 -41.89329,35.32299 -12.02339,13.46661 -21.73994,28.87593 -28.337382,47.19038 -5.91037,15.39981 -9.833884,29.00042 -12.034974,42.86917 -2.20841,13.91634 -2.6848,28.05652 -1.69686,44.49883 0.21818,3.63675 1.28402,7.01719 3.0831,9.95571 1.79913,2.93798 4.328304,5.42595 7.473414,7.27704 13.428612,7.90435 27.440942,14.12814 42.011112,18.31279 13.87614,3.98545 28.26378,6.13157 43.14144,6.13157 h 8.4e-4 8.4e-4 c 14.87766,0 29.2653,-2.14612 43.14126,-6.13157 14.57034,-4.18465 28.58266,-10.40844 42.0111,-18.31279 3.14529,-1.85109 5.67445,-4.33906 7.47358,-7.27704 1.79907,-2.93852 2.86492,-6.31896 3.08311,-9.95571 0.98794,-16.44231 0.51155,-30.58249 -1.69687,-44.49883 -2.2011,-13.86875 -6.12459,-27.46936 -12.03496,-42.86917 -6.59744,-18.31445 -16.31399,-33.72377 -28.33737,-47.19038 -11.96912,-13.40542 -26.19792,-24.85744 -41.89329,-35.32299 -3.61446,-2.40988 -7.67983,-3.63243 -11.74787,-3.66695 z m 0,221.02527 c -15.39342,0 -30.29485,-2.2177 -44.66475,-6.3377 C 97.50015,533.7053 83.00794,527.28 69.141198,519.11787 c -3.977304,-2.34102 -7.189914,-5.51007 -9.477664,-9.2469 -2.28786,-3.73694 -3.65016,-8.0361 -3.92627,-12.63632 -0.45576,-7.58868 -0.62233,-15.15207 -0.37849,-22.73662 0.24341,-7.57325 0.90063,-15.1377 2.09279,-22.73022 1.21352,-7.72642 2.92817,-15.21361 5.02486,-22.54344 2.07425,-7.25069 4.566714,-14.48133 7.346044,-21.72852 6.814612,-18.89274 16.806962,-34.81882 29.183262,-48.74154 12.31794,-13.85698 27.0022,-25.73011 43.26576,-36.57433 4.5885,-3.05952 9.77571,-4.6066 14.96426,-4.64112 5.18869,0.0345 10.37588,1.5816 14.96439,4.64112 16.26356,10.84422 30.94782,22.71735 43.26575,36.57433 12.37629,13.92272 22.36866,29.8488 29.18308,48.74154 2.77951,7.24719 5.27196,14.47783 7.3462,21.72852 2.0967,7.32983 3.81137,14.81702 5.02488,22.54344 1.19217,7.59252 1.8492,15.15697 2.0928,22.73022 0.24384,7.58455 0.0773,15.14794 -0.37849,22.73662 -0.27629,4.60022 -1.63841,8.89938 -3.92628,12.63632 -2.28775,3.73683 -5.50037,6.90588 -9.47778,9.2469 -13.86663,8.16213 -28.35883,14.58743 -43.42967,18.90816 -14.36989,4.12 -29.27133,6.3377 -44.66488,6.3377 z m 0,-196.79046 0.10989,-0.0753 0.006,0.004 -0.11556,0.0789 -0.11545,-0.0789 0.006,-0.004 0.10977,0.0753 z m 0,0.53739 c 0.45505,0.005 0.90915,0.14476 1.31347,0.42088 l 0.15234,0.10421 0.33363,0.22841 -1.8e-4,0.008 0.63374,0.43329 c 0.6374,0.43566 0.99799,1.08595 1.02949,1.8576 l 3.04309,74.51367 c 0.80847,19.79319 11.41595,36.37731 29.04648,45.41087 l 35.43109,18.15431 c 0.84565,0.43317 1.33026,1.26979 1.28515,2.21883 l -0.0733,1.54844 c -0.0397,0.84052 -0.47508,1.54412 -1.20996,1.95466 l -2.21316,1.23656 c -0.63723,0.35609 -1.32961,0.40433 -2.01028,0.14075 l -47.52802,-18.42422 c -6.43351,-2.49381 -12.83369,-3.7467 -19.23352,-3.75922 -6.39971,0.0125 -12.79988,1.26541 -19.23339,3.75922 l -47.52803,18.42422 c -0.68069,0.26358 -1.37306,0.21534 -2.0103,-0.14075 l -2.21315,-1.23656 c -0.73488,-0.41054 -1.17024,-1.11414 -1.20996,-1.95466 l -0.0734,-1.54844 c -0.0451,-0.94904 0.4395,-1.78566 1.28516,-2.21883 l 35.43111,-18.15431 c 17.63052,-9.03356 28.238,-25.61768 29.04647,-45.41087 l 3.04309,-74.51367 c 0.0315,-0.77165 0.39209,-1.42194 1.0295,-1.8576 l 0.63374,-0.43329 -1.8e-4,-0.008 0.33345,-0.22841 0.15251,-0.10421 c 0.40433,-0.27612 0.85843,-0.41639 1.31335,-0.42088 z m 0,140.24608 c 11.27569,0.0117 20.41252,9.15521 20.41252,20.43349 0,0.94958 -0.0652,1.8842 -0.1907,2.79942 -0.14595,1.06455 -0.95088,1.8725 -2.01489,2.02229 -5.9637,0.84004 -12.03196,1.27735 -18.20693,1.27835 -6.17484,-8.3e-4 -12.2431,-0.43831 -18.20679,-1.27835 -1.06402,-0.14979 -1.86895,-0.95774 -2.0149,-2.02229 -0.12549,-0.91522 -0.1907,-1.84984 -0.1907,-2.79942 0,-11.27828 9.13683,-20.42179 20.41239,-20.43349 z m 0,32.45185 h 0.0122 c 1.91954,0 3.82945,-0.0401 5.72991,-0.11982 -1.90383,0.08 -3.81723,0.12047 -5.74067,0.12047 h -8.4e-4 -8.4e-4 c -1.92345,0 -3.83685,-0.0405 -5.74066,-0.12047 1.90045,0.0797 3.81035,0.11982 5.72991,0.11982 h 0.0121 z m 0,5.91895 h 8.4e-4 c 14.2042,0 27.91997,-2.12502 41.14174,-6.04634 13.17553,-3.90765 25.84589,-9.60428 38.00685,-16.76233 1.44742,-0.85175 2.57846,-1.9432 3.38274,-3.25743 0.80481,-1.31447 1.26257,-2.81533 1.36259,-4.48477 0.93788,-15.60989 0.5005,-28.91158 -1.58308,-42.00555 -2.07932,-13.06577 -5.79847,-25.87452 -11.4279,-40.52508 l -0.0216,-0.0602 c -6.15067,-17.09898 -15.27207,-31.42685 -26.53657,-43.92816 -11.20267,-12.43286 -24.52327,-23.05511 -39.1444,-32.80435 -1.62534,-1.08399 -3.39746,-1.64313 -5.18182,-1.67783 -1.78424,0.0347 -3.55635,0.59384 -5.1817,1.67783 -14.62112,9.74924 -27.94173,20.37149 -39.14458,32.80435 -11.26433,12.50131 -20.38591,26.82918 -26.53641,43.92816 l -0.0216,0.0602 c -5.62941,14.65056 -9.34857,27.45931 -11.427902,40.52508 -2.08358,13.09397 -2.52095,26.39566 -1.58325,42.00555 0.1002,1.66944 0.55796,3.1703 1.36259,4.48477 0.80446,1.31423 1.935512,2.40568 3.382932,3.25743 12.16095,7.15805 24.83114,12.85468 38.00685,16.76233 13.22177,3.92132 26.93754,6.04634 41.14175,6.04634 h 8.4e-4 z m 9.90004,-165.75085 -0.0608,-1.51126 c -0.0379,-0.94219 0.44404,-1.76911 1.28267,-2.20038 0.8385,-0.43135 1.79139,-0.3425 2.53573,0.23627 8.1584,6.34272 15.70855,13.16276 22.41823,20.70824 10.00011,11.24577 18.13032,24.10057 23.6272,39.38203 l 0.11059,0.30177 c 5.16137,13.43072 8.60979,25.09826 10.59205,36.91836 1.2199,7.27303 1.88627,14.59795 2.05651,22.41806 0.0187,0.85742 -0.38369,1.60294 -1.11078,2.05816 -0.72672,0.45493 -1.57309,0.49135 -2.33616,0.0999 l -19.21564,-9.85399 c -0.83963,-0.43063 -1.32275,-1.25807 -1.28522,-2.20091 0.0855,-2.14713 0.15571,-4.27415 0.15571,-6.43925 0,-37.91854 -14.45757,-72.45598 -38.15298,-98.41633 -0.39144,-0.42898 -0.59366,-0.92044 -0.61712,-1.50068 z m -19.79994,0 0.0608,-1.51126 c 0.0379,-0.94219 -0.44422,-1.76911 -1.28266,-2.20038 -0.83851,-0.43135 -1.79157,-0.3425 -2.53573,0.23627 -8.15841,6.34272 -15.70873,13.16276 -22.41824,20.70824 -10.0001,11.24577 -18.13031,24.10057 -23.6272,39.38203 l -0.1106,0.30177 c -5.16137,13.43072 -8.60979,25.09826 -10.59206,36.91836 -1.21989,7.27303 -1.88627,14.59795 -2.05651,22.41806 -0.0187,0.85742 0.3837,1.60294 1.11078,2.05816 0.72672,0.45493 1.57291,0.49135 2.33616,0.0999 l 19.21544,-9.85399 c 0.83981,-0.43063 1.32293,-1.25807 1.28522,-2.20091 -0.0855,-2.14713 -0.15553,-4.27415 -0.15553,-6.43925 0,-37.91854 14.45757,-72.45598 38.15298,-98.41633 0.39144,-0.42898 0.59366,-0.92044 0.61713,-1.50068"
                 style="fill:#48b23a;fill-opacity:1;fill-rule:evenodd;stroke:none;stroke-width:0.5911203"
                 id="path837"
                 inkscape:connector-curvature="0" /></g></g></g></g></g></g></svg>